G04 #@! TF.FileFunction,Copper,L2,Bot,Signal*
%FSLAX46Y46*%
G04 Gerber Fmt 4.6, Leading zero omitted, Abs format (unit mm)*
G04 Created by KiCad (PCBNEW 4.0.6) date 02/09/18 16:59:13*
%MOMM*%
%LPD*%
G01*
G04 APERTURE LIST*
%ADD10C,0.100000*%
%ADD11C,2.000000*%
%ADD12C,2.200000*%
%ADD13C,0.800000*%
%ADD14C,0.400000*%
G04 APERTURE END LIST*
D10*
D11*
X99695000Y-135890000D03*
X99695000Y-133350000D03*
X99695000Y-130810000D03*
X99060000Y-120650000D03*
X76200000Y-123190000D03*
X76200000Y-120650000D03*
X99060000Y-123190000D03*
X76200000Y-143510000D03*
X76200000Y-146050000D03*
X99060000Y-143510000D03*
X99060000Y-146050000D03*
X90170000Y-118110000D03*
X87630000Y-118110000D03*
X85090000Y-118110000D03*
X87630000Y-124620000D03*
X85130000Y-124620000D03*
X90130000Y-124620000D03*
X96360000Y-133350000D03*
X96360000Y-130850000D03*
X96360000Y-135850000D03*
D12*
X84380000Y-139100000D03*
X84380000Y-143600000D03*
X90880000Y-139100000D03*
X90880000Y-143600000D03*
D11*
X81305000Y-128350000D03*
X93955000Y-128350000D03*
X81305000Y-138350000D03*
X93955000Y-138350000D03*
X83330000Y-133350000D03*
X91930000Y-133350000D03*
X91440000Y-148590000D03*
X88900000Y-148590000D03*
X86360000Y-148590000D03*
X83820000Y-148590000D03*
X87630000Y-139065000D03*
X87630000Y-143510000D03*
X78105000Y-136525000D03*
X80645000Y-144780000D03*
D13*
X99060000Y-120650000D02*
X94100000Y-120650000D01*
X94100000Y-120650000D02*
X90130000Y-124620000D01*
X90170000Y-118110000D02*
X90170000Y-124580000D01*
X90170000Y-124580000D02*
X90130000Y-124620000D01*
X87630000Y-124620000D02*
X87630000Y-125730000D01*
X95885000Y-123190000D02*
X99060000Y-123190000D01*
X92075000Y-127000000D02*
X95885000Y-123190000D01*
X88900000Y-127000000D02*
X92075000Y-127000000D01*
X87630000Y-125730000D02*
X88900000Y-127000000D01*
D14*
X87630000Y-118110000D02*
X85725000Y-116205000D01*
X74295000Y-121285000D02*
X76200000Y-123190000D01*
X74295000Y-120015000D02*
X74295000Y-121285000D01*
X78105000Y-116205000D02*
X74295000Y-120015000D01*
X85725000Y-116205000D02*
X78105000Y-116205000D01*
D13*
X87630000Y-124620000D02*
X87630000Y-118110000D01*
X96360000Y-135850000D02*
X91400000Y-135850000D01*
X80645000Y-120650000D02*
X76200000Y-120650000D01*
X82550000Y-122555000D02*
X80645000Y-120650000D01*
X82550000Y-127000000D02*
X82550000Y-122555000D01*
X91400000Y-135850000D02*
X82550000Y-127000000D01*
X99695000Y-135890000D02*
X96400000Y-135890000D01*
X96400000Y-135890000D02*
X96360000Y-135850000D01*
D14*
X99060000Y-143510000D02*
X101600000Y-140970000D01*
X101600000Y-135255000D02*
X99695000Y-133350000D01*
X101600000Y-140970000D02*
X101600000Y-135255000D01*
X76200000Y-143510000D02*
X76200000Y-142875000D01*
X76200000Y-142875000D02*
X78105000Y-140970000D01*
X78105000Y-140970000D02*
X96520000Y-140970000D01*
X96520000Y-140970000D02*
X99060000Y-143510000D01*
D13*
X99695000Y-133350000D02*
X96360000Y-133350000D01*
D14*
X99695000Y-130810000D02*
X99695000Y-130937000D01*
X99695000Y-130937000D02*
X102362000Y-133604000D01*
X102362000Y-142748000D02*
X99060000Y-146050000D01*
X102362000Y-133604000D02*
X102362000Y-142748000D01*
X76200000Y-146050000D02*
X80645000Y-141605000D01*
X94615000Y-141605000D02*
X99060000Y-146050000D01*
X80645000Y-141605000D02*
X94615000Y-141605000D01*
D13*
X96360000Y-130850000D02*
X99655000Y-130850000D01*
X99655000Y-130850000D02*
X99695000Y-130810000D01*
X85130000Y-124620000D02*
X85130000Y-127675000D01*
X88305000Y-130850000D02*
X96360000Y-130850000D01*
X85130000Y-127675000D02*
X88305000Y-130850000D01*
X85090000Y-118110000D02*
X85090000Y-124580000D01*
X85090000Y-124580000D02*
X85130000Y-124620000D01*
X91440000Y-148590000D02*
X91440000Y-144160000D01*
X91440000Y-144160000D02*
X90880000Y-143600000D01*
D14*
X88900000Y-148590000D02*
X88900000Y-144780000D01*
X87665000Y-139100000D02*
X90880000Y-139100000D01*
X87630000Y-139065000D02*
X87665000Y-139100000D01*
X88900000Y-144780000D02*
X87630000Y-143510000D01*
D13*
X90770000Y-139100000D02*
X90880000Y-139100000D01*
X86360000Y-148590000D02*
X86360000Y-145580000D01*
X86360000Y-145580000D02*
X84380000Y-143600000D01*
D14*
X78105000Y-136525000D02*
X81805000Y-136525000D01*
X83820000Y-147955000D02*
X80645000Y-144780000D01*
X81805000Y-136525000D02*
X84380000Y-139100000D01*
X83820000Y-148590000D02*
X83820000Y-147955000D01*
M02*
