M48
;DRILL file {KiCad 4.0.6} date 02/09/18 15:14:12
;FORMAT={3:3/ absolute / metric / suppress leading zeros}
FMAT,2
METRIC,TZ
T1C0.600
T2C1.000
T3C1.200
T4C1.500
T5C3.000
%
G90
G05
M71
T1
X78105Y-136525
X80645Y-144780
X87630Y-139065
X87630Y-143510
T2
X76200Y-120650
X76200Y-123190
X76200Y-143510
X76200Y-146050
X83820Y-148590
X85090Y-118110
X85130Y-124620
X86360Y-148590
X87630Y-118110
X87630Y-124620
X88900Y-148590
X90130Y-124620
X90170Y-118110
X91440Y-148590
X96360Y-130850
X96360Y-133350
X96360Y-135850
X99060Y-120650
X99060Y-123190
X99060Y-143510
X99060Y-146050
X99695Y-130810
X99695Y-133350
X99695Y-135890
T3
X84380Y-139100
X84380Y-143600
X90880Y-139100
X90880Y-143600
T4
X81305Y-128350
X81305Y-138350
X83330Y-133350
X91930Y-133350
X93955Y-128350
X93955Y-138350
T5
X80010Y-118110
X80010Y-148590
X95250Y-118110
X95250Y-148590
T0
M30
